<svg xmlns="http://www.w3.org/2000/svg" fill="none" viewBox="0 0 24 24" id="Paginate-Filter-2--Streamline-Ultimate.svg"><desc>Paginate Filter 2 Streamline Icon: https://streamlinehq.com</desc><path fill="#ff914d" d="M3.5 4.5h-2a1 1 0 0 0 -1 1v17a1 1 0 0 0 1 1h17a1 1 0 0 0 1 -1v-2" stroke-width="1"></path><path stroke="#191919" stroke-linecap="round" stroke-linejoin="round" d="M3.5 4.5h-2a1 1 0 0 0 -1 1v17a1 1 0 0 0 1 1h17a1 1 0 0 0 1 -1v-2" stroke-width="1"></path><path fill="#fafafa" d="M23.5 1.5a1 1 0 0 0 -1 -1h-18a1 1 0 0 0 -1 1v18a1 1 0 0 0 1 1h18a1 1 0 0 0 1 -1v-18Z" stroke-width="1"></path><path fill="#fafafa" d="M3.8 20.208 23.208 0.8A1 1 0 0 0 22.5 0.5h-18a1 1 0 0 0 -1 1v18a1 1 0 0 0 0.3 0.708Z" stroke-width="1"></path><path stroke="#191919" stroke-linecap="round" stroke-linejoin="round" d="M23.5 1.5a1 1 0 0 0 -1 -1h-18a1 1 0 0 0 -1 1v18a1 1 0 0 0 1 1h18a1 1 0 0 0 1 -1v-18Z" stroke-width="1"></path><path stroke="#191919" stroke-linecap="round" stroke-linejoin="round" d="M16.5 14.5H11l3.5 -3.089c0.987 -0.87 1.741 -1.479 1.45 -2.911A2.5 2.5 0 0 0 11 9" stroke-width="1"></path></svg>