<svg xmlns="http://www.w3.org/2000/svg" fill="none" viewBox="0 0 24 24" id="Paginate-Filter-1--Streamline-Ultimate.svg"><desc>Paginate Filter 1 Streamline Icon: https://streamlinehq.com</desc><path fill="#ff914d" d="M3.5 4.5h-2a1 1 0 0 0 -1 1v17a1 1 0 0 0 1 1h17a1 1 0 0 0 1 -1v-2" stroke-width="1"></path><path stroke="#191919" stroke-linecap="round" stroke-linejoin="round" d="M3.5 4.5h-2a1 1 0 0 0 -1 1v17a1 1 0 0 0 1 1h17a1 1 0 0 0 1 -1v-2" stroke-width="1"></path><path fill="#fafafa" d="M23.5 1.5a1 1 0 0 0 -1 -1h-18a1 1 0 0 0 -1 1v18a1 1 0 0 0 1 1h18a1 1 0 0 0 1 -1v-18Z" stroke-width="1"></path><path fill="#fafafa" d="M3.8 20.208 23.208 0.8A1 1 0 0 0 22.5 0.5h-18a1 1 0 0 0 -1 1v18a1 1 0 0 0 0.3 0.708Z" stroke-width="1"></path><path stroke="#191919" stroke-linecap="round" stroke-linejoin="round" d="M23.5 1.5a1 1 0 0 0 -1 -1h-18a1 1 0 0 0 -1 1v18a1 1 0 0 0 1 1h18a1 1 0 0 0 1 -1v-18Z" stroke-width="1"></path><path stroke="#191919" stroke-linecap="round" stroke-linejoin="round" d="M10.997 14.5h5" stroke-width="1"></path><path stroke="#191919" stroke-linecap="round" stroke-linejoin="round" d="M13.5 14.5V7a0.5 0.5 0 0 0 -0.812 -0.391L11 7.959" stroke-width="1"></path></svg>